<svg xmlns="http://www.w3.org/2000/svg" width="21" height="20" viewBox="0 0 21 20" fill="none">
  <g clip-path="url(#clip0_4612_2626)">
    <path fill-rule="evenodd" clip-rule="evenodd" d="M4.55799 2.29243C4.36939 2.11027 4.11679 2.00948 3.85459 2.01176C3.59239 2.01403 3.34158 2.1192 3.15617 2.30461C2.97077 2.49002 2.8656 2.74083 2.86332 3.00303C2.86104 3.26523 2.96183 3.51783 3.14399 3.70643L17.144 17.7064C17.3326 17.8886 17.5852 17.9894 17.8474 17.9871C18.1096 17.9848 18.3604 17.8797 18.5458 17.6942C18.7312 17.5088 18.8364 17.258 18.8387 16.9958C18.8409 16.7336 18.7402 16.481 18.558 16.2924L17.085 14.8194C18.6425 13.5775 19.7943 11.8994 20.393 9.99943C19.119 5.94243 15.329 2.99943 10.851 2.99943C9.28342 2.9973 7.7375 3.36529 6.33899 4.07343L4.55899 2.29243H4.55799ZM8.81899 6.55243L10.333 8.06743C10.6721 7.97738 11.0289 7.97798 11.3677 8.06916C11.7065 8.16034 12.0153 8.33891 12.2634 8.587C12.5115 8.83508 12.6901 9.14397 12.7813 9.48276C12.8724 9.82155 12.873 10.1783 12.783 10.5174L14.297 12.0314C14.748 11.2675 14.9322 10.3752 14.8206 9.49511C14.7091 8.61499 14.3081 7.79693 13.6808 7.16961C13.0535 6.54229 12.2354 6.14132 11.3553 6.02978C10.4752 5.91823 9.58297 6.10244 8.81899 6.55343V6.55243Z" fill="#A1A1A1"/>
    <path d="M13.3046 16.6971L10.6006 13.9921C9.62828 13.9312 8.71162 13.5175 8.02265 12.8288C7.33368 12.14 6.91977 11.2234 6.85859 10.2511L3.18559 6.57812C2.34081 7.58414 1.70294 8.74704 1.30859 10.0001C2.58259 14.0571 6.37359 17.0001 10.8506 17.0001C11.6976 17.0001 12.5196 16.8951 13.3046 16.6971Z" fill="#A1A1A1"/>
  </g>
  <defs>
    <clipPath id="clip0_4612_2626">
      <rect width="20" height="20" fill="white" transform="translate(0.851562)"/>
    </clipPath>
  </defs>
</svg>